<svg width="12" height="9" viewBox="0 0 12 9" fill="none" xmlns="http://www.w3.org/2000/svg">
<path fill-rule="evenodd" clip-rule="evenodd" d="M11.854 0.646039C11.9006 0.692485 11.9375 0.747661 11.9627 0.808406C11.9879 0.869151 12.0009 0.934272 12.0009 1.00004C12.0009 1.06581 11.9879 1.13093 11.9627 1.19167C11.9375 1.25242 11.9006 1.30759 11.854 1.35404L4.85399 8.35404C4.80754 8.4006 4.75237 8.43755 4.69162 8.46275C4.63088 8.48796 4.56576 8.50093 4.49999 8.50093C4.43422 8.50093 4.3691 8.48796 4.30836 8.46275C4.24761 8.43755 4.19244 8.4006 4.14599 8.35404L0.645991 4.85404C0.552104 4.76015 0.499359 4.63282 0.499359 4.50004C0.499359 4.36726 0.552104 4.23993 0.645991 4.14604C0.739877 4.05215 0.867215 3.99941 0.999991 3.99941C1.13277 3.99941 1.2601 4.05215 1.35399 4.14604L4.49999 7.29304L11.146 0.646039C11.1924 0.599476 11.2476 0.562533 11.3084 0.537327C11.3691 0.51212 11.4342 0.499146 11.5 0.499146C11.5658 0.499146 11.6309 0.51212 11.6916 0.537327C11.7524 0.562533 11.8075 0.599476 11.854 0.646039V0.646039Z" fill="#28A745"/>
</svg>
